<svg xmlns="http://www.w3.org/2000/svg" width="349" height="140" viewBox="0 0 349 140">
  <path fill="#FFF" fill-rule="evenodd" d="M670.414062,1589.6875 C670.414062,1596.06774 667.22399,1599.25781 660.84375,1599.25781 C657.65363,1599.25781 656.058594,1597.66278 656.058594,1594.47266 C656.058594,1594.01692 656.286456,1593.33334 656.742188,1592.42188 C657.197919,1591.51041 657.425781,1590.82683 657.425781,1590.37109 C657.425781,1589.0039 656.742194,1588.32031 655.375,1588.32031 C653.096343,1588.32031 651.957031,1589.45962 651.957031,1591.73828 L651.957031,1616.34766 C651.957031,1616.80339 652.184894,1617.03125 652.640625,1617.03125 L654.691406,1617.71484 L655.375,1618.39844 L655.375,1620.44922 C655.375,1620.90495 655.147138,1621.13281 654.691406,1621.13281 L638.96875,1621.13281 C638.513019,1621.13281 638.285156,1620.90495 638.285156,1620.44922 L638.285156,1609.51172 C630.993453,1618.17062 625.069033,1622.5 620.511719,1622.5 C618.688793,1622.5 617.093757,1621.58855 615.726562,1619.76562 C614.359368,1617.9427 612.992194,1617.03125 611.625,1617.03125 C611.169269,1617.03125 609.802095,1617.9427 607.523438,1619.76562 C605.24478,1621.58855 602.28257,1622.5 598.636719,1622.5 C593.623673,1622.5 589.40822,1620.44924 585.990234,1616.34766 C582.572249,1612.24607 580.863281,1607.2331 580.863281,1601.30859 C580.863281,1595.38408 582.572249,1590.37111 585.990234,1586.26953 C589.40822,1582.16795 593.623673,1580.11719 598.636719,1580.11719 C602.28257,1580.11719 605.24478,1580.80077 607.523438,1582.16797 L610.941406,1584.21875 C612.308601,1584.21875 612.992188,1583.53516 612.992188,1582.16797 C612.992188,1581.71224 613.447912,1581.48438 614.359375,1581.48438 L627.347656,1581.48438 C627.803388,1581.48438 628.03125,1581.71224 628.03125,1582.16797 L628.03125,1584.21875 L627.347656,1584.90234 L624.613281,1585.58594 L623.929688,1586.26953 L623.929688,1608.14453 C623.929688,1609.96746 624.841137,1610.87891 626.664062,1610.87891 C628.031257,1610.87891 631.904916,1608.37242 638.285156,1603.35938 L638.285156,1588.32031 C638.285156,1587.40885 637.829432,1586.95312 636.917969,1586.95312 L635.550781,1586.95312 L634.867188,1587.63672 C633.499993,1587.63672 632.816406,1586.95313 632.816406,1585.58594 C632.816406,1582.39582 635.322892,1580.80078 640.335938,1580.80078 C643.526058,1580.80078 645.804681,1581.71223 647.171875,1583.53516 C648.539069,1585.35808 649.678381,1586.26953 650.589844,1586.26953 C651.045575,1586.26953 652.184887,1585.35808 654.007812,1583.53516 C655.830738,1581.71223 658.109361,1580.80078 660.84375,1580.80078 C663.578139,1580.34505 665.856762,1581.02864 667.679688,1582.85156 C669.502613,1584.67449 670.414062,1586.95311 670.414062,1589.6875 Z M610.941406,1595.15625 C610.941406,1591.5104 608.434921,1589.6875 603.421875,1589.6875 C596.585903,1589.6875 593.167969,1593.56116 593.167969,1601.30859 C593.167969,1609.05603 596.585903,1612.92969 603.421875,1612.92969 C608.434921,1612.92969 610.941406,1611.33465 610.941406,1608.14453 L610.941406,1595.15625 Z M673.832031,1559.60938 C673.832031,1559.15364 673.604169,1558.92578 673.148438,1558.92578 L671.097656,1558.24219 C670.641925,1558.24219 670.414062,1558.01433 670.414062,1557.55859 L670.414062,1555.50781 C670.414062,1555.05208 670.641925,1554.82422 671.097656,1554.82422 L686.820312,1554.82422 L687.503906,1555.50781 L687.503906,1610.87891 C687.503906,1612.70183 688.415355,1613.61328 690.238281,1613.61328 C692.516938,1613.61328 693.65625,1612.70183 693.65625,1610.87891 C693.65625,1609.96744 693.428388,1609.28386 692.972656,1608.82812 C692.972656,1607.91666 693.200519,1607.46094 693.65625,1607.46094 L696.390625,1606.09375 L697.074219,1606.77734 C697.985682,1611.33466 701.175754,1613.61328 706.644531,1613.61328 C710.746114,1613.61328 712.796875,1611.79038 712.796875,1608.14453 C712.796875,1605.86587 710.29039,1603.58725 705.277344,1601.30859 C700.264298,1599.02994 697.757812,1595.83986 697.757812,1591.73828 C697.757812,1589.00389 698.783193,1586.61134 700.833984,1584.56055 C702.884776,1582.50976 705.27733,1581.48438 708.011719,1581.48438 L727.152344,1581.48438 C728.519538,1581.48438 728.7474,1581.9401 727.835938,1582.85156 L723.734375,1591.73828 L723.050781,1592.42188 C720.772124,1591.05468 718.265639,1590.37109 715.53125,1590.37109 C711.885398,1590.37109 710.0625,1591.51041 710.0625,1593.78906 C710.0625,1595.61199 712.910779,1597.66275 718.607422,1599.94141 C724.304065,1602.22006 727.152344,1605.41014 727.152344,1609.51172 C727.152344,1612.70184 725.899101,1615.43619 723.392578,1617.71484 C720.886055,1619.9935 718.037776,1621.13281 714.847656,1621.13281 L687.503906,1621.13281 C678.845009,1621.13281 674.515625,1616.80343 674.515625,1608.14453 L673.832031,1559.60938 Z M894.632812,1582.16797 L894.632812,1584.21875 L893.949219,1584.90234 L891.214844,1585.58594 L890.53125,1586.26953 L890.53125,1627.28516 C890.53125,1632.2982 888.708352,1636.51365 885.0625,1639.93164 C881.416648,1643.34963 877.087265,1645.05859 872.074219,1645.05859 C864.326784,1645.05859 859.085951,1642.32425 856.351562,1636.85547 C847.692665,1652.35034 828.780094,1660.09766 799.613281,1660.09766 C792.321578,1660.09766 779.333427,1658.27476 760.648438,1654.62891 C741.963448,1650.98305 729.431021,1649.16016 723.050781,1649.16016 C699.352746,1649.16016 679.073001,1657.3632 662.210938,1673.76953 C661.755206,1674.22526 661.299481,1674.45312 660.84375,1674.45312 L627.347656,1656.67969 L627.347656,1655.3125 C649.678497,1636.62751 675.199075,1627.28516 703.910156,1627.28516 C718.949294,1627.28516 738.31759,1630.81702 762.015625,1637.88086 C785.71366,1644.9447 803.259058,1648.47656 814.652344,1648.47656 C823.766973,1648.47656 831.628222,1647.10939 838.236328,1644.375 C844.844434,1641.64061 849.173818,1638.90626 851.224609,1636.17188 C853.275401,1633.43749 854.300781,1630.931 854.300781,1628.65234 L854.984375,1627.96875 L858.402344,1627.96875 C858.858075,1627.96875 859.085938,1628.19661 859.085938,1628.65234 C859.085938,1634.57685 862.27601,1637.53906 868.65625,1637.53906 C874.580759,1637.53906 877.542969,1634.34899 877.542969,1627.96875 L877.542969,1619.76562 C877.542969,1618.85416 877.087244,1618.39844 876.175781,1618.39844 C875.72005,1618.39844 875.150394,1618.74023 874.466797,1619.42383 C873.7832,1620.10743 872.757819,1620.79101 871.390625,1621.47461 C870.023431,1622.15821 868.200532,1622.5 865.921875,1622.5 C860.908829,1622.5 856.579445,1620.44924 852.933594,1616.34766 C849.287742,1612.24607 847.464844,1607.2331 847.464844,1601.30859 C847.464844,1595.38408 849.287742,1590.37111 852.933594,1586.26953 C856.579445,1582.16795 860.908829,1580.11719 865.921875,1580.11719 C869.111995,1580.11719 872.074205,1581.02864 874.808594,1582.85156 L878.226562,1584.90234 C878.682294,1584.90234 879.365881,1583.99089 880.277344,1582.16797 C880.277344,1581.71224 880.505206,1581.48438 880.960938,1581.48438 L893.949219,1581.48438 L894.632812,1582.16797 Z M877.542969,1595.15625 C877.542969,1591.5104 875.036483,1589.6875 870.023438,1589.6875 C863.187466,1589.6875 859.769531,1593.56116 859.769531,1601.30859 C859.769531,1609.05603 863.187466,1612.92969 870.023438,1612.92969 C875.036483,1612.92969 877.542969,1611.33465 877.542969,1608.14453 L877.542969,1595.15625 Z M850.882812,1579.43359 C850.882812,1587.63676 847.69274,1591.73828 841.3125,1591.73828 C839.489574,1591.73828 837.894538,1591.16863 836.527344,1590.0293 C835.160149,1588.88997 834.020838,1588.32031 833.109375,1588.32031 C830.830718,1588.32031 829.691406,1589.45962 829.691406,1591.73828 L829.691406,1616.34766 L830.375,1617.03125 L832.425781,1617.71484 L833.792969,1618.39844 L833.792969,1620.44922 C833.792969,1620.90495 833.337244,1621.13281 832.425781,1621.13281 L817.386719,1621.13281 C816.475256,1621.13281 816.019531,1620.90495 816.019531,1620.44922 L816.019531,1592.42188 C816.019531,1590.14322 815.108082,1589.00391 813.285156,1589.00391 C811.006499,1589.00391 808.727876,1590.14322 806.449219,1592.42188 C806.449219,1602.44797 799.61335,1607.46094 785.941406,1607.46094 C785.941406,1608.82813 787.080718,1610.5371 789.359375,1612.58789 C791.638032,1614.63868 794.37238,1615.66406 797.5625,1615.66406 C801.208352,1615.66406 804.626286,1614.06903 807.816406,1610.87891 C809.183601,1609.51171 810.09505,1609.51171 810.550781,1610.87891 C810.550781,1611.33464 810.322919,1612.01822 809.867188,1612.92969 C809.411456,1614.75261 807.702489,1616.80337 804.740234,1619.08203 C801.77798,1621.36069 797.79039,1622.5 792.777344,1622.5 C781.384058,1622.5 774.548188,1617.0313 772.269531,1606.09375 C769.079411,1605.18229 766.800788,1604.04298 765.433594,1602.67578 L765.433594,1610.19531 C765.433594,1617.48702 761.559935,1621.13281 753.8125,1621.13281 L747.660156,1621.13281 C737.178333,1621.13281 731.9375,1616.80343 731.9375,1608.14453 L731.9375,1559.60938 C731.9375,1558.69791 731.709638,1558.24219 731.253906,1558.24219 L729.203125,1557.55859 C728.291662,1557.55859 727.835938,1557.33073 727.835938,1556.875 L727.835938,1554.82422 C728.291669,1554.36849 728.747394,1554.14062 729.203125,1554.14062 L744.242188,1554.14062 L745.609375,1554.82422 L745.609375,1608.82812 C745.609375,1612.47398 747.660136,1614.29688 751.761719,1614.29688 C756.319033,1614.29688 758.597656,1612.47398 758.597656,1608.82812 L758.597656,1598.57422 L753.128906,1595.15625 C752.217443,1595.15625 751.761719,1594.47266 751.761719,1593.10547 L751.761719,1582.16797 L752.445312,1581.48438 L764.066406,1581.48438 L764.75,1582.16797 L764.75,1597.20703 C767.484389,1599.02996 769.763012,1600.16927 771.585938,1600.625 C771.585938,1595.15622 773.636698,1590.48505 777.738281,1586.61133 C781.839864,1582.73761 786.852835,1580.80078 792.777344,1580.80078 C799.157584,1580.80078 803.259105,1582.85154 805.082031,1586.95312 C811.462271,1582.85154 816.24738,1580.80078 819.4375,1580.80078 C821.716157,1580.80078 823.539056,1581.48437 824.90625,1582.85156 C826.273444,1584.21876 827.184894,1584.90234 827.640625,1584.90234 C828.552088,1584.90234 829.007812,1584.21876 829.007812,1582.85156 L829.007812,1580.11719 C829.007812,1577.83853 830.374986,1576.69922 833.109375,1576.69922 C834.476569,1576.69922 836.185537,1577.38281 838.236328,1578.75 C840.28712,1580.11719 841.768225,1580.80078 842.679688,1580.80078 C844.502613,1580.80078 845.414062,1579.43361 845.414062,1576.69922 C845.414062,1574.42056 843.819026,1572.14194 840.628906,1569.86328 C839.717443,1568.49609 840.40103,1567.58464 842.679688,1567.12891 C848.148465,1569.86329 850.882812,1573.96482 850.882812,1579.43359 Z M798.929688,1592.42188 C798.929688,1589.68749 797.562514,1588.32031 794.828125,1588.32031 C788.447885,1588.32031 785.257812,1593.10542 785.257812,1602.67578 C789.359396,1602.67578 792.663399,1601.53647 795.169922,1599.25781 C797.676445,1596.97916 798.929688,1594.70053 798.929688,1592.42188 Z M637.601562,1626.60156 C638.968757,1625.23437 640.108068,1625.12044 641.019531,1626.25977 C641.930994,1627.39909 641.703132,1628.42447 640.335938,1629.33594 C629.854114,1639.81776 617.093825,1645.05859 602.054688,1645.05859 C587.01555,1645.05859 573.913467,1639.70383 562.748047,1628.99414 C551.582626,1618.28445 546,1605.18237 546,1589.6875 C546,1570.09105 554.88663,1552.08993 572.660156,1535.68359 C572.660156,1535.22786 573.343743,1535 574.710938,1535 L643.753906,1535 C645.121101,1535 645.348963,1535.45572 644.4375,1536.36719 L621.195312,1565.76172 C621.195312,1566.21745 620.739588,1566.44531 619.828125,1566.44531 C615.270811,1561.888 609.118528,1559.60938 601.371094,1559.60938 C592.256465,1559.60938 584.395215,1563.3691 577.787109,1570.88867 C571.179003,1578.40824 567.875,1586.95308 567.875,1596.52344 C567.875,1607.46099 571.976521,1616.91728 580.179688,1624.89258 C588.382854,1632.86788 598.180933,1636.85547 609.574219,1636.85547 C620.511773,1636.85547 629.854128,1633.43753 637.601562,1626.60156 Z M832.425781,1543.20312 C833.792976,1543.20312 834.476562,1542.51954 834.476562,1541.15234 L834.476562,1537.73438 C834.476562,1535.91145 835.388012,1535 837.210938,1535 C837.666669,1535 837.894531,1535.11393 837.894531,1535.3418 C837.894531,1535.56966 838.122394,1535.68359 838.578125,1535.68359 C839.945319,1537.05079 841.768218,1537.27865 844.046875,1536.36719 C846.325532,1535.45572 847.920568,1535.91145 848.832031,1537.73438 C849.743494,1540.46876 849.515632,1542.0638 848.148438,1542.51953 C846.325512,1544.34246 845.641925,1546.16536 846.097656,1547.98828 L845.414062,1549.35547 C845.414062,1550.72266 844.274751,1550.95053 841.996094,1550.03906 L839.261719,1548.67188 C838.350256,1547.76041 837.438807,1547.98827 836.527344,1549.35547 C836.527344,1550.72266 836.755206,1551.40625 837.210938,1551.40625 L840.628906,1553.45703 C841.996101,1553.91276 842.223963,1555.05207 841.3125,1556.875 L840.628906,1557.55859 L840.628906,1558.24219 C838.80598,1559.15365 837.438807,1560.52082 836.527344,1562.34375 C836.527344,1564.62241 835.388032,1565.76172 833.109375,1565.76172 C831.286449,1565.76172 829.919275,1564.62241 829.007812,1562.34375 C829.007812,1560.52082 827.868501,1559.15365 825.589844,1558.24219 L824.222656,1556.875 C823.766925,1555.50781 823.994787,1554.36849 824.90625,1553.45703 L828.324219,1551.40625 C828.77995,1551.40625 829.121744,1551.17839 829.349609,1550.72266 C829.577475,1550.26692 829.463544,1549.8112 829.007812,1549.35547 C828.552081,1548.44401 827.640632,1548.21614 826.273438,1548.67188 L823.539062,1550.03906 C821.716137,1550.95053 820.576825,1550.72266 820.121094,1549.35547 C819.665362,1548.89974 819.4375,1548.44401 819.4375,1547.98828 C820.348963,1545.70962 819.665376,1543.88673 817.386719,1542.51953 C816.019524,1542.0638 815.791662,1540.46876 816.703125,1537.73438 C817.614588,1535.91145 818.981762,1535.45572 820.804688,1536.36719 C823.539076,1537.27865 825.589837,1537.05079 826.957031,1535.68359 L828.324219,1535 C830.147145,1535 831.058594,1535.91145 831.058594,1537.73438 L831.058594,1541.15234 C831.058594,1542.51954 831.514318,1543.20312 832.425781,1543.20312 Z" transform="translate(-546 -1535)"/>
</svg>
